<?xml version="1.0" encoding="UTF-8"?>
<svg width="572px" height="116px" viewBox="0 0 572 116" version="1.1" xmlns="http://www.w3.org/2000/svg" xmlns:xlink="http://www.w3.org/1999/xlink">
    <title>coreui react</title>
    <g id="Page-1" stroke="none" stroke-width="1" fill="none" fill-rule="evenodd">
        <g id="coreui-react" fill-rule="nonzero">
            <g id="Group">
                <g transform="translate(467.000000, 34.000000)" fill="#1BBD93" id="Path">
                    <path d="M11.9818,45.0869 L0.1418,1.5669 L0.0774,1.3745 C0.0774,1.0337 0.290933333,0.863133333 0.718,0.8628 L1.9973,0.8628 C2.3484104,0.836016878 2.65871015,1.08959044 2.7024,1.439 L13.3254,41.119 C13.3674,41.2049 13.4113,41.2469 13.4543,41.2469 C13.4953,41.2469 13.5383,41.2049 13.5813,41.119 L24.2063,1.439 C24.2485244,1.08962578 24.5585389,0.835564614 24.9094,0.8628 L26.1262,0.8628 C26.3091291,0.841337132 26.490382,0.914591928 26.6070285,1.05713068 C26.7236751,1.19966943 26.7596262,1.39183182 26.7024,1.5669 L14.7981,45.0869 C14.7551408,45.4362781 14.4449673,45.6900644 14.094,45.663 L12.6858,45.663 C12.3347543,45.6903765 12.0244202,45.4364227 11.9818,45.0869 L11.9818,45.0869 Z"></path>
                    <path d="M46.2786,44.5751 C44.4130904,43.5209954 42.8995577,41.9405424 41.9271,40.0312 C40.8705844,37.9285065 40.3432581,35.5997166 40.3909,33.247 L40.3909,1.5029 C40.365682,1.32662792 40.4249475,1.14877197 40.5508597,1.02285972 C40.676772,0.896947461 40.8546279,0.837682046 41.0309,0.8629 L42.2477,0.8629 C42.423944,0.837813167 42.6017194,0.897121554 42.7275989,1.02300107 C42.8534784,1.14888058 42.9127868,1.32665598 42.8877,1.5029 L42.8877,33.5029 C42.7635767,36.2805487 43.7411056,38.9948806 45.6077,41.0556 C49.6148884,44.8956274 55.9364116,44.8956274 59.9436,41.0556 C61.8104008,38.9949622 62.7881785,36.2806378 62.6643,33.5029 L62.6643,1.5029 C62.6390383,1.32661856 62.6982893,1.14873572 62.8242125,1.02281253 C62.9501357,0.896889334 63.1280186,0.837638267 63.3043,0.8629 L64.5202,0.8629 C64.6964743,0.837908225 64.8742446,0.897223197 65.0001948,1.02305547 C65.1261451,1.14888774 65.1856266,1.32660234 65.1608,1.5029 L65.1608,33.247 C65.3199672,36.6988596 64.0993498,40.0722336 61.7682,42.623 C59.401427,45.0349535 56.1206471,46.3266647 52.7448,46.1757 C50.4861669,46.2199169 48.2558016,45.6678272 46.2786,44.5751 L46.2786,44.5751 Z"></path>
                    <path d="M103.5843,3.1035 L83.5521,3.1035 C83.4816524,3.09348906 83.4105988,3.11719501 83.3602745,3.16749957 C83.3099503,3.21780413 83.2862166,3.28884854 83.2962,3.3593 L83.2962,21.8554 C83.2860064,21.9259048 83.3096671,21.9970873 83.3600399,22.0474601 C83.4104127,22.0978329 83.4815952,22.1214936 83.5521,22.1113 L97.3763,22.1113 C97.5525836,22.0862647 97.7303806,22.1455654 97.8563417,22.2714085 C97.9823028,22.3972517 98.0417701,22.574993 98.0169,22.7513 L98.0169,23.7113 C98.04198,23.8877028 97.9826061,24.0656262 97.8566162,24.1916162 C97.7306262,24.3176061 97.5527028,24.37698 97.3763,24.3519 L83.5521,24.3519 C83.4816326,24.3418816 83.4105578,24.3655997 83.3602288,24.4159288 C83.3098997,24.4662578 83.2861816,24.5373326 83.2962,24.6078 L83.2962,43.1678 C83.2860064,43.2383048 83.3096671,43.3094873 83.3600399,43.3598601 C83.4104127,43.4102329 83.4815952,43.4338936 83.5521,43.4237 L103.5843,43.4237 C103.760607,43.3988299 103.938348,43.4582972 104.064191,43.5842583 C104.190035,43.7102194 104.249335,43.8880164 104.2243,44.0643 L104.2243,45.0243 C104.249562,45.2005814 104.190311,45.3784643 104.064387,45.5043875 C103.938464,45.6303107 103.760581,45.6895617 103.5843,45.6643 L81.4407,45.6643 C81.2643137,45.6898164 81.0862213,45.6306735 80.96014,45.5047103 C80.8340587,45.3787471 80.7747489,45.2007102 80.8001,45.0243 L80.8001,1.5043 C80.7749243,1.32792736 80.8342915,1.14999829 80.960329,1.02407891 C81.0863664,0.898159526 81.264351,0.838959061 81.4407,0.8643 L103.5843,0.8643 C103.760544,0.839213167 103.938319,0.898521554 104.064199,1.02440107 C104.190078,1.15028058 104.249387,1.32805598 104.2243,1.5043 L104.2243,2.4643 C104.24915,2.64042576 104.189732,2.81798506 104.06388,2.94367964 C103.938028,3.06937422 103.760395,3.12857071 103.5843,3.1035 Z"></path>
                </g>
                <path d="M96.59,25.0577 L57.59,2.541 C53.8771871,0.397406461 49.3028129,0.397406461 45.59,2.541 L6.59,25.0576 C2.88223016,27.2062789 0.596891654,31.1646376 0.59,35.45 L0.59,80.4833 C0.596804386,84.7686597 2.88217097,88.7270289 6.59,90.8756 L45.59,113.3923 C49.3028129,115.535894 53.8771871,115.535894 57.59,113.3923 L96.59,90.8756 C100.297799,88.7269989 102.583155,84.7686487 102.59,80.4833 L102.59,35.45 C102.583093,31.1646678 100.297754,27.206346 96.59,25.0577 Z M94.59,80.4833 C94.59,81.9123618 93.8276038,83.2328691 92.59,83.9474 L53.59,106.4641 C52.3523625,107.178507 50.8276375,107.178507 49.59,106.4641 L10.59,83.9474 C9.35239619,83.2328691 8.59,81.9123618 8.59,80.4833 L8.59,35.45 C8.59,34.0209025 9.35236525,32.7003488 10.59,31.9858 L49.59,9.4692 C50.8276043,8.75466882 52.3523957,8.75466882 53.59,9.4692 L92.59,31.9858 C93.8276347,32.7003488 94.59,34.0209025 94.59,35.45 L94.59,80.4833 Z" id="Shape" fill="#3C4B64"></path>
                <path d="M74.612,71.0046 L71.746,71.0046 C71.0731519,71.0046119 70.411173,71.1743113 69.8213,71.498 L52.5406,80.9833 L32.59,69.4648 L32.59,46.4872 L52.54,34.9687 L69.8293,44.4236 C70.41777,44.7454874 71.0777479,44.9141958 71.7485,44.9142 L74.6117,44.9142 C75.7162695,44.9142 76.6117,44.0187695 76.6117,42.9142 L76.6117,40.2024 C76.6117,39.4713907 76.2129914,38.7985844 75.5717,38.4477 L56.3833,27.9521 C53.9307893,26.6182494 50.9618553,26.6523198 48.5406,28.0421 L28.59,39.56 C26.1183249,40.9928349 24.5948565,43.6317488 24.59,46.4887 L24.59,69.4647 C24.59,72.3228593 26.1147614,74.9639204 28.59,76.393 L48.54,87.9116 C50.9619497,89.3001739 53.9307385,89.3334456 56.3832,87.9995 L75.5732,77.4683 C76.2132016,77.1170775 76.6109885,76.4450406 76.611,75.715 L76.611,73.005 C76.6117,71.9006647 75.7163352,71.0051521 74.612,71.0046 Z" id="Path" fill="#3C4B64"></path>
            </g>
            <path d="M134.9295,81 C139.165167,81 142.62575,79.91925 145.31125,77.75775 C147.99675,75.59625 149.3395,72.4413333 149.3395,68.293 C149.3395,63.2713333 147.418167,59.6688333 143.5755,57.4855 C143.400833,57.3545 143.422667,57.2235 143.641,57.0925 C147.003333,55.1711667 148.6845,52.049 148.6845,47.726 C148.6845,43.4903333 147.396333,40.3354167 144.82,38.26125 C142.243667,36.1870833 138.619333,35.15 133.947,35.15 L133.947,35.15 L120.2575,35.15 C120.039167,35.15 119.853583,35.2264167 119.70075,35.37925 C119.547917,35.5320833 119.4715,35.7176667 119.4715,35.936 L119.4715,35.936 L119.4715,80.214 C119.4715,80.4323333 119.547917,80.6179167 119.70075,80.77075 C119.853583,80.9235833 120.039167,81 120.2575,81 L120.2575,81 L134.9295,81 Z M134.0125,54.014 L129.0345,54.014 C128.816167,54.014 128.707,53.9048333 128.707,53.6865 L128.707,53.6865 L128.707,43.403 C128.707,43.1846667 128.816167,43.0755 129.0345,43.0755 L129.0345,43.0755 L134.0125,43.0755 C135.802833,43.0755 137.18925,43.5558333 138.17175,44.5165 C139.15425,45.4771667 139.6455,46.8308333 139.6455,48.5775 C139.6455,50.2805 139.143333,51.6123333 138.139,52.573 C137.134667,53.5336667 135.759167,54.014 134.0125,54.014 L134.0125,54.014 Z M134.5365,73.009 L129.0345,73.009 C128.816167,73.009 128.707,72.8998333 128.707,72.6815 L128.707,72.6815 L128.707,61.4155 C128.707,61.1971667 128.816167,61.088 129.0345,61.088 L129.0345,61.088 L134.5365,61.088 C136.283167,61.088 137.64775,61.6229167 138.63025,62.69275 C139.61275,63.7625833 140.104,65.2363333 140.104,67.114 C140.104,68.9916667 139.61275,70.4435833 138.63025,71.46975 C137.64775,72.4959167 136.283167,73.009 134.5365,73.009 L134.5365,73.009 Z M171.260954,81.5895 C174.273954,81.5895 176.937621,80.9781667 179.251954,79.7555 C181.566287,78.5328333 183.356621,76.808 184.622954,74.581 C185.889287,72.354 186.522454,69.7558333 186.522454,66.7865 L186.522454,66.7865 L186.522454,49.3635 C186.522454,46.4378333 185.889287,43.8615 184.622954,41.6345 C183.356621,39.4075 181.566287,37.6826667 179.251954,36.46 C176.937621,35.2373333 174.273954,34.626 171.260954,34.626 C168.247954,34.626 165.595204,35.2373333 163.302704,36.46 C161.010204,37.6826667 159.230787,39.4075 157.964454,41.6345 C156.698121,43.8615 156.064954,46.4378333 156.064954,49.3635 L156.064954,49.3635 L156.064954,66.7865 C156.064954,69.7558333 156.698121,72.354 157.964454,74.581 C159.230787,76.808 161.010204,78.5328333 163.302704,79.7555 C165.595204,80.9781667 168.247954,81.5895 171.260954,81.5895 Z M171.260954,73.664 C169.470621,73.664 168.029621,73.0635833 166.937954,71.86275 C165.846287,70.6619167 165.300454,69.1008333 165.300454,67.1795 L165.300454,67.1795 L165.300454,49.1015 C165.300454,47.1365 165.846287,45.5535833 166.937954,44.35275 C168.029621,43.1519167 169.470621,42.5515 171.260954,42.5515 C173.094954,42.5515 174.557787,43.1519167 175.649454,44.35275 C176.741121,45.5535833 177.286954,47.1365 177.286954,49.1015 L177.286954,49.1015 L177.286954,67.1795 C177.286954,69.1008333 176.741121,70.6619167 175.649454,71.86275 C174.557787,73.0635833 173.094954,73.664 171.260954,73.664 Z M208.771408,81.5895 C211.784408,81.5895 214.448075,80.9781667 216.762408,79.7555 C219.076741,78.5328333 220.867075,76.808 222.133408,74.581 C223.399741,72.354 224.032908,69.7558333 224.032908,66.7865 L224.032908,66.7865 L224.032908,49.3635 C224.032908,46.4378333 223.399741,43.8615 222.133408,41.6345 C220.867075,39.4075 219.076741,37.6826667 216.762408,36.46 C214.448075,35.2373333 211.784408,34.626 208.771408,34.626 C205.758408,34.626 203.105658,35.2373333 200.813158,36.46 C198.520658,37.6826667 196.741241,39.4075 195.474908,41.6345 C194.208575,43.8615 193.575408,46.4378333 193.575408,49.3635 L193.575408,49.3635 L193.575408,66.7865 C193.575408,69.7558333 194.208575,72.354 195.474908,74.581 C196.741241,76.808 198.520658,78.5328333 200.813158,79.7555 C203.105658,80.9781667 205.758408,81.5895 208.771408,81.5895 Z M208.771408,73.664 C206.981075,73.664 205.540075,73.0635833 204.448408,71.86275 C203.356741,70.6619167 202.810908,69.1008333 202.810908,67.1795 L202.810908,67.1795 L202.810908,49.1015 C202.810908,47.1365 203.356741,45.5535833 204.448408,44.35275 C205.540075,43.1519167 206.981075,42.5515 208.771408,42.5515 C210.605408,42.5515 212.068241,43.1519167 213.159908,44.35275 C214.251575,45.5535833 214.797408,47.1365 214.797408,49.1015 L214.797408,49.1015 L214.797408,67.1795 C214.797408,69.1008333 214.251575,70.6619167 213.159908,71.86275 C212.068241,73.0635833 210.605408,73.664 208.771408,73.664 Z M249.032862,81 C249.251195,81 249.436779,80.9235833 249.589612,80.77075 C249.742445,80.6179167 249.818862,80.4323333 249.818862,80.214 L249.818862,80.214 L249.818862,43.4685 C249.818862,43.2501667 249.928029,43.141 250.146362,43.141 L250.146362,43.141 L260.102362,43.141 C260.320695,43.141 260.506279,43.0645833 260.659112,42.91175 C260.811945,42.7589167 260.888362,42.5733333 260.888362,42.355 L260.888362,42.355 L260.888362,35.936 C260.888362,35.7176667 260.811945,35.5320833 260.659112,35.37925 C260.506279,35.2264167 260.320695,35.15 260.102362,35.15 L260.102362,35.15 L230.627362,35.15 C230.409029,35.15 230.223445,35.2264167 230.070612,35.37925 C229.917779,35.5320833 229.841362,35.7176667 229.841362,35.936 L229.841362,35.936 L229.841362,42.355 C229.841362,42.5733333 229.917779,42.7589167 230.070612,42.91175 C230.223445,43.0645833 230.409029,43.141 230.627362,43.141 L230.627362,43.141 L240.255862,43.141 C240.474195,43.141 240.583362,43.2501667 240.583362,43.4685 L240.583362,43.4685 L240.583362,80.214 C240.583362,80.4323333 240.659779,80.6179167 240.812612,80.77075 C240.965445,80.9235833 241.151029,81 241.369362,81 L241.369362,81 L249.032862,81 Z M281.303316,81.524 C285.757316,81.524 289.327066,80.3559167 292.012566,78.01975 C294.698066,75.6835833 296.040816,72.5286667 296.040816,68.555 C296.040816,66.328 295.560483,64.4285 294.599816,62.8565 C293.639149,61.2845 292.449233,59.9854167 291.030066,58.95925 C289.610899,57.9330833 287.634983,56.7213333 285.102316,55.324 L285.102316,55.324 L283.726816,54.538 C281.499816,53.4463333 279.840483,52.5620833 278.748816,51.88525 C277.657149,51.2084167 276.849316,50.4988333 276.325316,49.7565 C275.801316,49.0141667 275.539316,48.1408333 275.539316,47.1365 C275.539316,45.6955 275.986899,44.5710833 276.882066,43.76325 C277.777233,42.9554167 279.010816,42.5515 280.582816,42.5515 C282.460483,42.5515 283.945149,43.0755 285.036816,44.1235 C286.128483,45.1715 286.674316,46.4815 286.674316,48.0535 L286.674316,48.0535 L286.674316,49.2325 C286.674316,49.4508333 286.750733,49.6364167 286.903566,49.78925 C287.056399,49.9420833 287.241983,50.0185 287.460316,50.0185 L287.460316,50.0185 L294.992816,50.0185 C295.211149,50.0185 295.396733,49.9420833 295.549566,49.78925 C295.702399,49.6364167 295.778816,49.4508333 295.778816,49.2325 L295.778816,49.2325 L295.778816,47.9225 C295.778816,45.3025 295.145649,42.9881667 293.879316,40.9795 C292.612983,38.9708333 290.844483,37.40975 288.573816,36.29625 C286.303149,35.18275 283.704983,34.626 280.779316,34.626 C277.984649,34.626 275.495649,35.1390833 273.312316,36.16525 C271.128983,37.1914167 269.436899,38.65425 268.236066,40.55375 C267.035233,42.45325 266.434816,44.6693333 266.434816,47.202 C266.434816,49.7346667 267.024316,51.8961667 268.203316,53.6865 C269.382316,55.4768333 270.801483,56.9396667 272.460816,58.075 C274.120149,59.2103333 276.259816,60.433 278.879816,61.743 C281.019483,62.8346667 282.602399,63.6970833 283.628566,64.33025 C284.654733,64.9634167 285.451649,65.64025 286.019316,66.36075 C286.586983,67.08125 286.870816,67.9436667 286.870816,68.948 C286.870816,70.3016667 286.423233,71.4151667 285.528066,72.2885 C284.632899,73.1618333 283.333816,73.5985 281.630816,73.5985 C279.709483,73.5985 278.181149,73.0854167 277.045816,72.05925 C275.910483,71.0330833 275.342816,69.7558333 275.342816,68.2275 L275.342816,68.2275 L275.342816,66.983 C275.342816,66.7646667 275.266399,66.5790833 275.113566,66.42625 C274.960733,66.2734167 274.775149,66.197 274.556816,66.197 L274.556816,66.197 L267.024316,66.197 C266.805983,66.197 266.620399,66.2734167 266.467566,66.42625 C266.314733,66.5790833 266.238316,66.7646667 266.238316,66.983 L266.238316,66.983 L266.238316,68.686 C266.238316,71.2186667 266.860566,73.4565833 268.105066,75.39975 C269.349566,77.3429167 271.107149,78.8494167 273.377816,79.91925 C275.648483,80.9890833 278.290316,81.524 281.303316,81.524 Z M320.25477,81 C320.473103,81 320.658687,80.9235833 320.81152,80.77075 C320.964353,80.6179167 321.04077,80.4323333 321.04077,80.214 L321.04077,80.214 L321.04077,43.4685 C321.04077,43.2501667 321.149937,43.141 321.36827,43.141 L321.36827,43.141 L331.32427,43.141 C331.542603,43.141 331.728187,43.0645833 331.88102,42.91175 C332.033853,42.7589167 332.11027,42.5733333 332.11027,42.355 L332.11027,42.355 L332.11027,35.936 C332.11027,35.7176667 332.033853,35.5320833 331.88102,35.37925 C331.728187,35.2264167 331.542603,35.15 331.32427,35.15 L331.32427,35.15 L301.84927,35.15 C301.630937,35.15 301.445353,35.2264167 301.29252,35.37925 C301.139687,35.5320833 301.06327,35.7176667 301.06327,35.936 L301.06327,35.936 L301.06327,42.355 C301.06327,42.5733333 301.139687,42.7589167 301.29252,42.91175 C301.445353,43.0645833 301.630937,43.141 301.84927,43.141 L301.84927,43.141 L311.47777,43.141 C311.696103,43.141 311.80527,43.2501667 311.80527,43.4685 L311.80527,43.4685 L311.80527,80.214 C311.80527,80.4323333 311.881687,80.6179167 312.03452,80.77075 C312.187353,80.9235833 312.372937,81 312.59127,81 L312.59127,81 L320.25477,81 Z M347.416224,81 C347.634557,81 347.820141,80.9235833 347.972974,80.77075 C348.125807,80.6179167 348.202224,80.4323333 348.202224,80.214 L348.202224,80.214 L348.202224,62.3325 C348.202224,62.1141667 348.311391,62.005 348.529724,62.005 L348.529724,62.005 L352.656224,62.005 C352.787224,62.005 352.896391,62.0923333 352.983724,62.267 L352.983724,62.267 L359.599224,80.345 C359.730224,80.7816667 360.035891,81 360.516224,81 L360.516224,81 L368.507224,81 C368.987557,81 369.227724,80.8035 369.227724,80.4105 C369.227724,80.2795 369.205891,80.1703333 369.162224,80.083 L369.162224,80.083 L361.695224,61.2845 C361.607891,61.0661667 361.673391,60.9133333 361.891724,60.826 C364.118724,59.8216667 365.843557,58.2933333 367.066224,56.241 C368.288891,54.1886667 368.900224,51.7651667 368.900224,48.9705 C368.900224,46.2631667 368.354391,43.8615 367.262724,41.7655 C366.171057,39.6695 364.620891,38.0429167 362.612224,36.88575 C360.603557,35.7285833 358.311057,35.15 355.734724,35.15 L355.734724,35.15 L339.752724,35.15 C339.534391,35.15 339.348807,35.2264167 339.195974,35.37925 C339.043141,35.5320833 338.966724,35.7176667 338.966724,35.936 L338.966724,35.936 L338.966724,80.214 C338.966724,80.4323333 339.043141,80.6179167 339.195974,80.77075 C339.348807,80.9235833 339.534391,81 339.752724,81 L339.752724,81 L347.416224,81 Z M354.228224,54.931 L348.529724,54.931 C348.311391,54.931 348.202224,54.8218333 348.202224,54.6035 L348.202224,54.6035 L348.202224,43.403 C348.202224,43.1846667 348.311391,43.0755 348.529724,43.0755 L348.529724,43.0755 L354.228224,43.0755 C355.843891,43.0755 357.153891,43.6104167 358.158224,44.68025 C359.162557,45.7500833 359.664724,47.202 359.664724,49.036 C359.664724,50.8263333 359.162557,52.2564167 358.158224,53.32625 C357.153891,54.3960833 355.843891,54.931 354.228224,54.931 L354.228224,54.931 Z M383.420178,81 C383.856845,81 384.140678,80.7816667 384.271678,80.345 L384.271678,80.345 L385.778178,73.926 C385.821845,73.7513333 385.931011,73.664 386.105678,73.664 L386.105678,73.664 L398.354178,73.664 C398.528845,73.664 398.638011,73.7513333 398.681678,73.926 L398.681678,73.926 L400.188178,80.345 C400.319178,80.7816667 400.624845,81 401.105178,81 L401.105178,81 L409.096178,81 C409.576511,81 409.816678,80.8035 409.816678,80.4105 L409.816678,80.4105 L409.751178,80.1485 L397.961178,35.805 C397.830178,35.3683333 397.524511,35.15 397.044178,35.15 L397.044178,35.15 L387.546678,35.15 C387.066345,35.15 386.760678,35.3683333 386.629678,35.805 L386.629678,35.805 L374.839678,80.1485 C374.708678,80.7161667 374.927011,81 375.494678,81 L375.494678,81 L383.420178,81 Z M396.520178,66.5245 L387.874178,66.5245 C387.786845,66.5245 387.699511,66.49175 387.612178,66.42625 C387.524845,66.36075 387.503011,66.2625 387.546678,66.1315 L387.546678,66.1315 L391.935178,47.1365 C391.978845,46.9618333 392.044345,46.8745 392.131678,46.8745 C392.219011,46.8745 392.284511,46.9618333 392.328178,47.1365 L392.328178,47.1365 L396.847678,66.1315 C396.891345,66.2625 396.869511,66.36075 396.782178,66.42625 C396.694845,66.49175 396.607511,66.5245 396.520178,66.5245 L396.520178,66.5245 Z M424.598632,81 C424.816965,81 425.002549,80.9235833 425.155382,80.77075 C425.308215,80.6179167 425.384632,80.4323333 425.384632,80.214 L425.384632,80.214 L425.384632,63.184 C425.384632,62.9656667 425.493799,62.8565 425.712132,62.8565 L425.712132,62.8565 L432.786132,62.8565 C435.406132,62.8565 437.731382,62.2888333 439.761882,61.1535 C441.792382,60.0181667 443.364382,58.4134167 444.477882,56.33925 C445.591382,54.2650833 446.148132,51.8743333 446.148132,49.167 C446.148132,46.416 445.591382,43.9706667 444.477882,41.831 C443.364382,39.6913333 441.792382,38.032 439.761882,36.853 C437.731382,35.674 435.406132,35.0845 432.786132,35.0845 L432.786132,35.0845 L416.935132,35.0845 C416.716799,35.0845 416.531215,35.1609167 416.378382,35.31375 C416.225549,35.4665833 416.149132,35.6521667 416.149132,35.8705 L416.149132,35.8705 L416.149132,80.214 C416.149132,80.4323333 416.225549,80.6179167 416.378382,80.77075 C416.531215,80.9235833 416.716799,81 416.935132,81 L416.935132,81 L424.598632,81 Z M431.279632,55.5205 L425.712132,55.5205 C425.493799,55.5205 425.384632,55.4113333 425.384632,55.193 L425.384632,55.193 L425.384632,43.403 C425.384632,43.1846667 425.493799,43.0755 425.712132,43.0755 L425.712132,43.0755 L431.279632,43.0755 C432.982632,43.0755 434.347215,43.6431667 435.373382,44.7785 C436.399549,45.9138333 436.912632,47.4421667 436.912632,49.3635 C436.912632,51.2411667 436.399549,52.73675 435.373382,53.85025 C434.347215,54.96375 432.982632,55.5205 431.279632,55.5205 L431.279632,55.5205 Z" id="BOOTSTRAP" fill="#3C4B64"></path>
        </g>
    </g>
</svg>